{"extensionsUsed" : ["KHR_materials_pbrSpecularGlossiness"], "accessors" : [{"bufferView" : 0, "byteOffset" : 0, "componentType" : 5123, "count" : 110913, "type" : "SCALAR", "max" : [22726], "min" : [0]}, {"bufferView" : 1, "byteOffset" : 0, "componentType" : 5126, "count" : 22727, "type" : "VEC3", "max" : [274.3674621582031, 401.07720947265625, 158.48316955566406], "min" : [-273.01934814453125, -0.4272778630256653, -158.48316955566406]}, {"bufferView" : 1, "byteOffset" : 12, "componentType" : 5126, "count" : 22727, "type" : "VEC3", "max" : [1.0000020265579224, 1.0000044107437134, 1.0000044107437134], "min" : [-1.0000039339065552, -1.0000044107437134, -1.0000044107437134]}, {"bufferView" : 1, "byteOffset" : 24, "componentType" : 5126, "count" : 22727, "type" : "VEC2", "max" : [0.995132327079773, 0.9950417876243591], "min" : [0.003571766894310713, 0.0023522377014160156]}], "asset" : {"generator" : "Aspose.3D 21.1", "version" : "2.0"}, "buffers" : [{"uri" : "buffer.bin", "byteLength" : 20248656}], "bufferViews" : [{"buffer" : 0, "byteOffset" : 0, "byteLength" : 221828, "target" : 34963}, {"buffer" : 0, "byteOffset" : 221832, "byteLength" : 3549216, "byteStride" : 32, "target" : 34962}, {"buffer" : 0, "byteOffset" : 3771052, "byteLength" : 2715601}, {"buffer" : 0, "byteOffset" : 6486656, "byteLength" : 2167915}, {"buffer" : 0, "byteOffset" : 8654572, "byteLength" : 7160262}, {"buffer" : 0, "byteOffset" : 15814836, "byteLength" : 4433816}], "images" : [{"mimeType" : "image/png", "bufferView" : 2}, {"mimeType" : "image/png", "bufferView" : 3}, {"mimeType" : "image/png", "bufferView" : 4}, {"mimeType" : "image/png", "bufferView" : 5}], "materials" : [{"extensions" : {"KHR_materials_pbrSpecularGlossiness" : {"diffuseFactor" : [1, 1, 1, 1], "diffuseTexture" : {"index" : 0, "texCoord" : 0}, "specularFactor" : [1, 1, 1], "glossinessFactor" : 1, "specularGlossinessTexture" : {"index" : 1, "texCoord" : 0, "scale" : 1}}}, "pbrMetallicRoughness" : {"baseColorFactor" : [1, 1, 1, 1], "baseColorTexture" : {"index" : 2, "texCoord" : 0}, "metallicFactor" : 1, "roughnessFactor" : 1, "metallicRoughnessTexture" : {"index" : 3, "texCoord" : 0}}, "emissiveFactor" : [0, 0, 0], "alphaMode" : "OPAQUE", "doubleSided" : true}], "meshes" : [{"primitives" : [{"attributes" : {"POSITION" : 1, "NORMAL" : 2, "TEXCOORD_0" : 3}, "indices" : 0, "material" : 0, "mode" : 4}]}], "nodes" : [{"matrix" : [0.0007018223523532301, 3.092852947725027E-12, -0.0006183294480160081, 0, 0.0001367972361173967, 0.0009121752676838207, 0.00015526896946789007, 0, 0.0006030072740521918, -0.00020693463223601659, 0.0006844312244285934, 0, -0.027876965701580048, -0.18273146450519562, 0.22531352937221527, 1], "mesh" : 0, "name" : "node_id34"}, {"children" : [0], "name" : "root"}], "samplers" : [{"magFilter" : 9728, "minFilter" : 9985, "wrapS" : 10497, "wrapT" : 10497}, {"magFilter" : 9728, "minFilter" : 9985, "wrapS" : 10497, "wrapT" : 10497}, {"magFilter" : 9728, "minFilter" : 9985, "wrapS" : 10497, "wrapT" : 10497}, {"magFilter" : 9728, "minFilter" : 9985, "wrapS" : 10497, "wrapT" : 10497}], "scene" : 0, "scenes" : [{"nodes" : [1]}], "textures" : [{"sampler" : 0, "source" : 0}, {"sampler" : 1, "source" : 1}, {"sampler" : 2, "source" : 2}, {"sampler" : 3, "source" : 3}]}