<svg xmlns="http://www.w3.org/2000/svg" xmlns:xlink="http://www.w3.org/1999/xlink" width="543" height="1001" viewBox="0 0 543 1001">
  <defs>
    <filter id="rectangle" x="-45" y="-40" width="633" height="1091" filterUnits="userSpaceOnUse">
      <feOffset dy="5" input="SourceAlpha"/>
      <feGaussianBlur stdDeviation="15" result="blur"/>
      <feFlood flood-opacity="0.051"/>
      <feComposite operator="in" in2="blur"/>
      <feComposite in="SourceGraphic"/>
    </filter>
    <clipPath id="clip-path">
      <g transform="matrix(1, 0, 0, 1, 0, 0)" filter="url(#rectangle)">
        <path id="rectangle-2" data-name="rectangle" d="M0,0H543a0,0,0,0,1,0,0V965a36,36,0,0,1-36,36H36A36,36,0,0,1,0,965V0A0,0,0,0,1,0,0Z" transform="translate(0.1 0.45)" fill="#fff"/>
      </g>
    </clipPath>
  </defs>
  <g id="bg-shadow" transform="translate(-0.099 -0.45)">
    <g id="Mask_Group_8" data-name="Mask Group 8" transform="translate(0 0)" clip-path="url(#clip-path)">
      <g id="undraw_Confirmation_re_b6q5" transform="translate(0 306.359)">
        <path id="Path_1145" data-name="Path 1145" d="M664.968,238.336H367.952A15.783,15.783,0,0,0,352.184,254.1V302.24a15.783,15.783,0,0,0,15.768,15.768H664.968a15.782,15.782,0,0,0,15.768-15.768V254.105A15.783,15.783,0,0,0,664.968,238.336Z" transform="translate(-138.237 -124.459)" fill="#f2f2f2"/>
        <path id="Path_1146" data-name="Path 1146" d="M323.481,428.73H205.315a.945.945,0,0,1,0-1.891H323.481a.945.945,0,1,1,0,1.891Z" transform="translate(-204.37 -40.121)" fill="#3f3d56"/>
        <path id="Path_1147" data-name="Path 1147" d="M277.892,224.085a8.864,8.864,0,0,0-1.817,13.47L267.485,255.9l9.875,7.939,11.768-26.076a8.912,8.912,0,0,0-11.235-13.678Z" transform="translate(-176.132 -131.464)" fill="#ffb8b8"/>
        <path id="Path_1148" data-name="Path 1148" d="M242.419,229.339h0a12.344,12.344,0,0,1,16.622,3.726l17.578,26.32,6.1-13.453a3.781,3.781,0,0,1,4.571-2.047l9.211,2.877a3.781,3.781,0,0,1,2.454,4.822l-6.3,18.617a16.089,16.089,0,0,1-24.35,8.1h0a16.086,16.086,0,0,1-2.635-2.266l-25.9-27.678a12.344,12.344,0,0,1,2.656-19.017Z" transform="translate(-190.025 -129.273)" fill="#ccc"/>
        <path id="Path_1149" data-name="Path 1149" d="M285.519,210.005a1.78,1.78,0,0,1,1.735,1.823l-.152,6.109.306.028-.11,4.149-.3-.037-.544,21.887a3.086,3.086,0,0,1-2.762,2.992l-13.917,1.465a2.336,2.336,0,0,1-2.575-2.481l2.111-31.165a2.89,2.89,0,0,1,2.44-2.661l13.435-2.087h0a1.784,1.784,0,0,1,.332-.023Z" transform="translate(-176.261 -137.135)" fill="#3f3d56"/>
        <path id="Path_1150" data-name="Path 1150" d="M274.349,213l7.063-1.1a.585.585,0,0,0,.492-.514h0a.663.663,0,0,1,.557-.583l1.488-.231A1.4,1.4,0,0,1,285.568,212l-.765,31.732a1.6,1.6,0,0,1-1.461,1.558l-13.907,1.236a1.238,1.238,0,0,1-1.345-1.308l1.876-30.877a2,2,0,0,1,1.687-1.853l1.568-.244A1,1,0,0,0,274.349,213Z" transform="translate(-175.861 -136.887)" fill="#fff"/>
        <path id="Path_1151" data-name="Path 1151" d="M45.407,273.444H56.214l5.14-41.685-15.95,0Z" transform="translate(20.313 103.69)" fill="#ffb8b8"/>
        <path id="Path_1152" data-name="Path 1152" d="M0,0H33.965V13.123H13.123A13.123,13.123,0,0,1,0,0H0Z" transform="translate(97.371 387.167) rotate(179.995)" fill="#2f2e41"/>
        <path id="Path_1153" data-name="Path 1153" d="M22.459,273.444H33.266l5.14-41.685-15.95,0Z" transform="translate(10.046 103.69)" fill="#ffb8b8"/>
        <path id="Path_1154" data-name="Path 1154" d="M0,0H33.965V13.123H13.123A13.123,13.123,0,0,1,0,0H0Z" transform="translate(64.156 387.167) rotate(179.995)" fill="#2f2e41"/>
        <circle id="Ellipse_587" data-name="Ellipse 587" cx="23.218" cy="23.218" r="23.218" transform="translate(40.938 39.462)" fill="#ffb8b8"/>
        <path id="Path_1155" data-name="Path 1155" d="M271.275,255.974A35.789,35.789,0,0,0,254,226.468c-6-3.535-12.564-4.913-17.788.31A36.257,36.257,0,0,0,228.8,237.9a47.743,47.743,0,0,0-.883,35.441l12.432,34.347,28.775,3.117a3.781,3.781,0,0,0,4.185-3.91Z" transform="translate(-195.17 -131.174)" fill="#404e5a"/>
        <path id="Path_1156" data-name="Path 1156" d="M242.042,278.687s-21.5,8.026-15.877,42.009c5.044,30.495,1.036,131.712.159,152.172a3.778,3.778,0,0,0,3.464,3.926l12.549,1.046a3.781,3.781,0,0,0,4.073-3.359l6.481-59.531a.945.945,0,0,1,1.882.023l4.829,57.282a3.781,3.781,0,0,0,3.887,3.462l10.541-.333a3.781,3.781,0,0,0,3.66-3.9l-6.209-188.824Z" transform="translate(-195.038 -106.406)" fill="#404e5a"/>
        <path id="Path_1157" data-name="Path 1157" d="M264.3,211.871c7.765,3.185,17.682-.536,21.436-8.042s.783-17.673-6.423-21.976-17.565-2.1-22.393,4.768c-3.927-7.075-14.216-8.879-21.28-4.931s-10.912,12.217-11.368,20.3,2,16.039,5,23.556c4.847,12.159,20.45,18.706,32.522,13.646C256.269,230.958,257.359,218.912,264.3,211.871Z" transform="translate(-195.488 -150.721)" fill="#2f2e41"/>
        <path id="Path_395" data-name="Path 395" d="M274.5,227.755a.952.952,0,0,1-.573-.19l-.01-.008-2.159-1.651a.959.959,0,1,1,1.167-1.523l1.4,1.072,3.3-4.311a.959.959,0,0,1,1.344-.178h0l-.021.029.021-.029a.96.96,0,0,1,.177,1.345l-3.886,5.068a.959.959,0,0,1-.763.374Z" transform="translate(-174.389 -132.319)" fill="#04d3d9"/>
        <path id="Path_1158" data-name="Path 1158" d="M665.161,159.659H368.145a15.783,15.783,0,0,0-15.768,15.768v48.135a15.782,15.782,0,0,0,15.768,15.768H665.161a15.783,15.783,0,0,0,15.768-15.768V175.428A15.782,15.782,0,0,0,665.161,159.659Zm14.109,63.9a14.129,14.129,0,0,1-14.109,14.109H368.145a14.129,14.129,0,0,1-14.108-14.109V175.428a14.129,14.129,0,0,1,14.109-14.109H665.161a14.129,14.129,0,0,1,14.109,14.109Z" transform="translate(-138.15 -159.659)" fill="#3f3d56"/>
        <path id="Path_1159" data-name="Path 1159" d="M413.514,223.11a27.445,27.445,0,1,1,27.445-27.445A27.445,27.445,0,0,1,413.514,223.11Z" transform="translate(-123.076 -155.829)" fill="#04d3d9"/>
        <path id="Path_1160" data-name="Path 1160" d="M586.625,206.767H443.973a6.639,6.639,0,1,1,0-13.279H586.625a6.639,6.639,0,1,1,0,13.279Z" transform="translate(-100.14 -144.524)" fill="#ccc"/>
        <path id="Path_1161" data-name="Path 1161" d="M491.184,187.272H443.973a6.639,6.639,0,1,1,0-13.279h47.212a6.639,6.639,0,1,1,0,13.279Z" transform="translate(-100.14 -153.246)" fill="#ccc"/>
        <path id="Path_395-2" data-name="Path 395" d="M407.238,200.967a3.138,3.138,0,0,1-1.888-.628l-.034-.025-7.113-5.441a3.161,3.161,0,0,1,3.847-5.017l4.607,3.533,10.888-14.2a3.16,3.16,0,0,1,4.43-.585h0l-.068.094.069-.094a3.164,3.164,0,0,1,.585,4.431l-12.806,16.7a3.162,3.162,0,0,1-2.515,1.233Z" transform="translate(-118.201 -151.478)" fill="#fff"/>
        <path id="Path_1162" data-name="Path 1162" d="M576.99,249.136H279.975A15.783,15.783,0,0,0,264.206,264.9V313.04a15.783,15.783,0,0,0,15.768,15.768H576.99a15.782,15.782,0,0,0,15.768-15.768V264.9A15.782,15.782,0,0,0,576.99,249.136Z" transform="translate(-177.599 -119.627)" fill="#fff"/>
        <path id="Path_1163" data-name="Path 1163" d="M576.99,249.136H279.975A15.783,15.783,0,0,0,264.206,264.9V313.04a15.783,15.783,0,0,0,15.768,15.768H576.99a15.782,15.782,0,0,0,15.768-15.768V264.9A15.782,15.782,0,0,0,576.99,249.136Zm14.109,63.9a14.129,14.129,0,0,1-14.109,14.108H279.975a14.129,14.129,0,0,1-14.109-14.108V264.9A14.129,14.129,0,0,1,279.974,250.8H576.99A14.129,14.129,0,0,1,591.1,264.9Z" transform="translate(-177.599 -119.627)" fill="#3f3d56"/>
        <path id="Path_1164" data-name="Path 1164" d="M325.343,312.587a27.445,27.445,0,1,1,27.445-27.445,27.445,27.445,0,0,1-27.445,27.445Z" transform="translate(-162.525 -115.796)" fill="#04d3d9"/>
        <path id="Path_1165" data-name="Path 1165" d="M498.454,296.244H355.8a6.639,6.639,0,0,1,0-13.279H498.454a6.639,6.639,0,1,1,0,13.279Z" transform="translate(-139.588 -104.491)" fill="#ccc"/>
        <path id="Path_1166" data-name="Path 1166" d="M403.014,276.749H355.8a6.639,6.639,0,0,1,0-13.279h47.212a6.639,6.639,0,0,1,0,13.279Z" transform="translate(-139.588 -113.213)" fill="#ccc"/>
        <path id="Path_395-3" data-name="Path 395" d="M319.067,290.443a3.14,3.14,0,0,1-1.889-.628l-.034-.025-7.113-5.442a3.161,3.161,0,0,1,3.847-5.017l4.607,3.533,10.888-14.2a3.16,3.16,0,0,1,4.43-.585h0l-.068.094.069-.094a3.163,3.163,0,0,1,.584,4.431l-12.806,16.7a3.162,3.162,0,0,1-2.514,1.233Z" transform="translate(-157.65 -111.445)" fill="#fff"/>
        <path id="Path_1167" data-name="Path 1167" d="M278.629,256.855a8.864,8.864,0,0,0-12.1,6.2l-19.966,3.42-.881,12.64,28.127-5.226a8.912,8.912,0,0,0,4.815-17.033Z" transform="translate(-185.885 -116.487)" fill="#ffb8b8"/>
        <path id="Path_1168" data-name="Path 1168" d="M252.609,231.907h0a12.344,12.344,0,0,1,6.43,15.774l-11.573,29.458L262,274.469a3.781,3.781,0,0,1,4.291,2.584l2.9,9.2a3.781,3.781,0,0,1-2.558,4.768l-18.885,5.453a16.088,16.088,0,0,1-20.551-15.368h0a16.086,16.086,0,0,1,.356-3.457l7.935-37.07a12.344,12.344,0,0,1,17.13-8.676Z" transform="translate(-194.161 -127.82)" fill="#ccc"/>
      </g>
    </g>
  </g>
</svg>
