<svg width="224" height="230" xmlns="http://www.w3.org/2000/svg">
 <style type="text/css">.st0{fill:#231F20;}
	.st1{fill:#FFFFFF;}
	.st2{display:none;}
	.st3{display:inline;}
	.st4{font-family:'NexaBold';}
	.st5{font-size:113px;}
	.st6{font-family:'NexaLight';}</style>

 <g>
  <title>background</title>
  <rect fill="none" id="canvas_background" height="232" width="226" y="-1" x="-1"/>
 </g>
 <g>
  <title>Layer 1</title>
  <path id="svg_1" d="m232.77,-0.00001" class="st0"/>
  <path id="svg_2" d="m90.35,103.78999l0,24.1l-23.16,19.92c-4.47,3.85 -7.05,9.46 -7.05,15.37l0,41.24l26.25,0l-14.96,26.82l-66.07,0l-4.8,-8.75l72.5,-106.64l-72.49,-106.65l4.8,-8.75l66.07,0l14.96,26.82l-26.25,0l0,41.24c0,5.91 2.57,11.52 7.05,15.35l23.15,19.93z" class="st1"/>
  <path id="svg_3" d="m133.05,103.78999l0,24.1l23.16,19.92c4.47,3.85 7.05,9.46 7.05,15.37l0,41.24l-26.26,0l14.96,26.82l66.07,0l4.8,-8.75l-72.5,-106.64l72.5,-106.66l-4.8,-8.75l-66.07,0l-14.96,26.83l26.25,0l0,41.24c0,5.91 -2.57,11.52 -7.05,15.35l-23.15,19.93z" class="st1"/>
  <path id="svg_4" d="m144.1,71.41999l-18.31,17.06c-3.29,3.05 -6.07,6.6 -8.26,10.52l-1.04,1.85c-1.18,2.13 -1.8,4.52 -1.8,6.95l0,20.49c0,1.88 -1.48,3.41 -3.33,3.51c-0.06,0.02 -0.13,0.02 -0.19,0.02l-0.16,0l0,-0.02c-1.85,-0.09 -3.33,-1.63 -3.33,-3.51l0,-20.49c0,-2.43 -0.62,-4.82 -1.8,-6.95l-1.04,-1.85c-2.2,-3.92 -4.99,-7.47 -8.26,-10.52l-18.32,-17.06c-0.85,-0.81 -0.28,-2.24 0.88,-2.24l64.1,0c1.16,0 1.73,1.44 0.86,2.24z" class="st1"/>
  <circle id="svg_5" r="5.61" cy="144.25999" cx="111.18" class="st1"/>
  <path id="svg_6" d="m140.73,191.53999l-59.11,0l19.32,-19.48c0.9,-0.9 1.99,-1.63 3.19,-2.12l0.81,-0.33c1.45,-0.58 3,-0.88 4.58,-0.88l3.33,0c1.56,0 3.13,0.3 4.58,0.88l0.81,0.33c1.2,0.49 2.27,1.22 3.19,2.12l19.3,19.48z" class="st1"/>
  <text x="1" y="144.89999" id="svg_7" class="st2" transform="matrix(1,0,0,1,6.3329,351.5881) ">
   <tspan id="svg_8" class="st3 st4 st5" y="0" x="0">XPLO</tspan>
   <tspan id="svg_9" class="st3 st6 st5" y="0" x="310.86">RAYL</tspan>
  </text>
 </g>
</svg>